<svg width="50" height="50" viewBox="0 0 50 50" fill="none" xmlns="http://www.w3.org/2000/svg">
<path d="M43.1398 11.0269L27.9463 26.2203C26.3191 27.8475 23.6809 27.8475 22.0537 26.2203L6.86019 11.0269C6.48319 11.4039 6.25 11.9247 6.25 12.5V37.5C6.25 38.6506 7.18274 39.5833 8.33333 39.5833H41.6667C42.8173 39.5833 43.75 38.6506 43.75 37.5V12.5C43.75 11.9247 43.5168 11.4039 43.1398 11.0269Z" fill="black" fill-opacity="0.15"/>
<path d="M6.86019 11.0269C7.2372 10.6498 7.75804 10.4167 8.33333 10.4167H41.6667C42.242 10.4167 42.7628 10.6498 43.1398 11.0269M6.86019 11.0269C6.48319 11.4039 6.25 11.9247 6.25 12.5V37.5C6.25 38.6506 7.18274 39.5833 8.33333 39.5833H41.6667C42.8173 39.5833 43.75 38.6506 43.75 37.5V12.5C43.75 11.9247 43.5168 11.4039 43.1398 11.0269M6.86019 11.0269L22.0537 26.2203C23.6809 27.8475 26.3191 27.8475 27.9463 26.2203L43.1398 11.0269" stroke="white" stroke-width="2" stroke-linecap="round" stroke-linejoin="round"/>
</svg>
